<?xml version="1.0" encoding="UTF-8" standalone="no"?>
<!DOCTYPE svg PUBLIC "-//W3C//DTD SVG 1.1//EN" "http://www.w3.org/Graphics/SVG/1.1/DTD/svg11.dtd">
<svg width="100%" height="100%" viewBox="0 0 232 72" version="1.1" xmlns="http://www.w3.org/2000/svg" xmlns:xlink="http://www.w3.org/1999/xlink" xml:space="preserve" xmlns:serif="http://www.serif.com/" style="fill-rule:evenodd;clip-rule:evenodd;stroke-linejoin:round;stroke-miterlimit:2;">
    <g transform="matrix(1,0,0,1,-26.542,-57.377)">
        <g id="LOGO" transform="matrix(1,0,0,1,-9.258,-9.623)">
            <path id="Path_1" d="M58.1,118.1L58.1,67L35.8,104.7L58.1,118.1Z" style="fill-opacity:0.45;fill-rule:nonzero;"/>
            <path id="Path_2" d="M58.1,67L80.4,104.7L58.1,118L58.1,67Z" style="fill-opacity:0.8;fill-rule:nonzero;"/>
            <path id="Path_3" d="M35.8,107.6L58.1,120.9L58.1,138.1" style="fill-opacity:0.45;fill-rule:nonzero;"/>
            <path id="Path_4" d="M80.4,107.6L58.1,120.9L58.1,138.1" style="fill-opacity:0.8;fill-rule:nonzero;"/>
            <path id="Path_5" d="M58.1,91.4L35.8,104.7L58.1,118L58.1,91.4Z" style="fill-opacity:0.6;fill-rule:nonzero;"/>
            <path id="Path_6" d="M58.1,91.4L80.4,104.7L58.1,118L58.1,91.4Z" style="fill-opacity:0.75;fill-rule:nonzero;"/>
            <g id="Group_1" transform="matrix(1,0,0,1,68.897,23.809)">
                <path id="Path_7" d="M26.6,69.4C26.6,68.1 26.9,66.8 27.5,65.6C28.1,64.5 28.9,63.6 30,63C31.1,62.4 32.4,62.1 33.6,62.1C34.8,62.1 36.1,62.4 37.2,63C38.2,63.6 39.1,64.5 39.6,65.6C40.2,66.8 40.5,68.1 40.5,69.4L40.5,70.5L30.3,70.5C30.3,71.3 30.7,72.1 31.3,72.6C32,73.2 32.8,73.4 33.7,73.4C34.4,73.4 35,73.3 35.6,72.9C36.3,72.5 37,72 37.5,71.3L39.8,73.7C39,74.6 38.1,75.3 37.1,75.8C36,76.3 34.9,76.5 33.7,76.5C32.4,76.5 31.1,76.2 30,75.6C28.9,75 28.1,74.1 27.5,73.1C26.8,72.1 26.6,70.8 26.6,69.4ZM36.7,67.9C36.6,67.2 36.3,66.5 35.7,66C34.4,65 32.7,65 31.4,66C30.8,66.5 30.5,67.2 30.3,67.9L36.7,67.9Z" style="fill-rule:nonzero;"/>
                <path id="Path_8" d="M52,65.9L52,71.4C52,71.8 52.1,72.1 52.3,72.4C52.6,72.6 53,72.7 53.4,72.7L56.5,72.7L56.5,76.3L53,76.3C51.7,76.4 50.5,76 49.5,75.2C48.6,74.4 48.2,73.3 48.3,72.1L48.3,65.8L44.9,65.8L44.9,62.5L48.3,62.5L48.3,59L52,59L52,62.5L57.4,62.5L57.4,65.8L52,65.9Z" style="fill-rule:nonzero;"/>
                <path id="Path_9" d="M62.4,57.4L66.1,57.4L66.1,63.8L66.2,63.8C67.9,62 70.7,61.6 72.8,62.9C73.6,63.4 74.2,64.1 74.6,64.9C75,65.9 75.3,66.9 75.2,67.9L75.2,76.2L71.5,76.2L71.5,68.4C71.5,67.6 71.3,66.9 70.8,66.3C70.3,65.8 69.6,65.5 68.9,65.5C68.1,65.5 67.4,65.7 66.8,66.3C66.3,66.9 66,67.6 66,68.4L66,76.2L62.3,76.2L62.4,57.4Z" style="fill-rule:nonzero;"/>
                <path id="Path_10" d="M79.3,69.4C79.3,68.1 79.6,66.8 80.2,65.6C80.8,64.5 81.6,63.6 82.7,63C83.8,62.4 85.1,62.1 86.3,62.1C87.5,62.1 88.8,62.4 89.9,63C90.9,63.6 91.8,64.5 92.3,65.6C92.9,66.8 93.2,68.1 93.2,69.4L93.2,70.5L83,70.5C83,71.3 83.4,72.1 84,72.6C84.7,73.2 85.5,73.4 86.4,73.4C87.1,73.4 87.7,73.3 88.3,72.9C89,72.5 89.7,72 90.2,71.3L92.5,73.7C91.7,74.6 90.8,75.3 89.8,75.8C88.7,76.3 87.6,76.6 86.4,76.5C85.1,76.5 83.8,76.2 82.7,75.6C81.6,75 80.8,74.1 80.2,73.1C79.6,72.1 79.3,70.8 79.3,69.4ZM89.4,67.9C89.3,67.2 89,66.5 88.4,66C87.1,65 85.4,65 84.1,66C83.5,66.5 83.2,67.2 83,67.9L89.4,67.9Z" style="fill-rule:nonzero;"/>
                <path id="Path_11" d="M98.5,62.6L102,62.6L102,63.9L102.1,63.9C103.1,62.8 104.6,62.2 106.1,62.2C107.2,62.2 108.3,62.5 109.2,63.2C110.1,63.9 110.7,64.9 111,66.1L107.5,67.2C107.2,66.1 106.2,65.4 105,65.5C104.2,65.4 103.4,65.7 102.9,66.3C102.4,66.9 102.1,67.7 102.2,68.5L102.2,76.2L98.5,76.2L98.5,62.6Z" style="fill-rule:nonzero;"/>
                <path id="Path_12" d="M114.5,69.4C114.5,68.1 114.8,66.8 115.4,65.6C116,64.5 116.8,63.6 117.9,63C119,62.4 120.3,62.1 121.5,62.1C122.7,62.1 124,62.4 125.1,63C126.1,63.6 127,64.5 127.5,65.6C128.1,66.8 128.4,68.1 128.4,69.4L128.4,70.5L118.2,70.5C118.2,71.3 118.6,72.1 119.2,72.6C119.9,73.2 120.7,73.4 121.6,73.4C122.3,73.4 122.9,73.3 123.5,72.9C124.2,72.5 124.9,72 125.4,71.3L127.7,73.7C126.9,74.6 126,75.3 125,75.8C123.9,76.3 122.8,76.6 121.6,76.5C120.3,76.5 119,76.2 117.9,75.6C116.8,75 116,74.1 115.4,73.1C114.7,72.1 114.4,70.8 114.5,69.4ZM124.6,67.9C124.5,67.2 124.2,66.5 123.6,66C122.3,65 120.6,65 119.3,66C118.7,66.5 118.4,67.2 118.2,67.9L124.6,67.9Z" style="fill-rule:nonzero;"/>
                <path id="Path_13" d="M132.8,71.6L132.8,62.6L136.5,62.6L136.5,70.8C136.3,72 137.1,73.1 138.3,73.3L138.9,73.3C139.6,73.3 140.2,73.1 140.7,72.6C141.2,72.1 141.4,71.4 141.4,70.8L141.4,62.6L145.1,62.6L145.1,76.3L141.6,76.3L141.6,75.1L141.5,75.1C141.1,75.6 140.5,76 139.9,76.3C137.9,77.1 135.7,76.8 134.1,75.4C133.2,74.3 132.7,73 132.8,71.6Z" style="fill-rule:nonzero;"/>
                <path id="Path_14" d="M149.2,62.6L152.5,62.6L152.5,63.8L152.6,63.8C152.9,63.4 153.3,63 153.7,62.7C154.2,62.4 154.7,62.3 155.2,62.3C156.3,62.3 157.3,62.9 157.8,63.8L157.9,63.8C158.5,62.8 159.6,62.2 160.7,62.3C161.6,62.3 162.5,62.7 163.1,63.4C163.7,64.2 164.1,65.2 164,66.2L164,76.3L160.6,76.3L160.6,66.8C160.6,66.5 160.5,66.1 160.3,65.9C160.1,65.7 159.7,65.6 159.4,65.6C159.1,65.6 158.8,65.7 158.5,66C158.3,66.3 158.2,66.6 158.2,66.9L158.2,76.3L155,76.3L155,66.8C155,66.5 154.9,66.2 154.7,65.9C154.5,65.7 154.2,65.6 153.9,65.6C153.6,65.6 153.2,65.7 153,65.9C152.8,66.2 152.6,66.5 152.7,66.8L152.7,76.2L149.3,76.2L149.2,62.6Z" style="fill-rule:nonzero;"/>
                <path id="Path_15" d="M30.7,94.7L27.1,94.7L27.1,91.4L30.7,91.4L30.7,89.4C30.6,88.3 31.1,87.3 31.9,86.5C32.8,85.8 34,85.4 35.2,85.5L39.2,85.5L39.2,88.8L35.7,88.8C35.4,88.8 35.1,88.9 34.9,89.1C34.7,89.3 34.6,89.6 34.6,89.9L34.6,91.5L40,91.5L40,94.8L34.5,94.8L34.5,103.7L30.7,103.7L30.7,94.7Z" style="fill-rule:nonzero;"/>
                <path id="Path_16" d="M44.2,96.7C44.2,95.4 44.5,94.1 45.1,92.9C45.7,91.8 46.5,90.9 47.6,90.3C49.9,89.1 52.6,89.1 54.9,90.3C55.9,90.9 56.8,91.8 57.4,92.9C58.6,95.3 58.6,98.1 57.4,100.4C56.8,101.5 56,102.4 54.9,103C52.6,104.2 49.9,104.2 47.6,103C46.5,102.4 45.7,101.5 45.1,100.4C44.4,99.3 44.1,98 44.2,96.7ZM54.4,96.7C54.5,95.7 54.2,94.7 53.5,93.9C52.9,93.2 52,92.8 51.1,92.9C50.2,92.9 49.3,93.2 48.7,93.9C48.1,94.7 47.8,95.7 47.8,96.7C47.7,97.7 48,98.7 48.7,99.5C50,100.8 52.1,100.9 53.5,99.6L53.6,99.5C54.2,98.7 54.5,97.7 54.4,96.7Z" style="fill-rule:nonzero;"/>
                <path id="Path_17" d="M62.5,98.9L62.5,89.9L66.2,89.9L66.2,98.1C66,99.3 66.9,100.4 68.1,100.6L68.7,100.6C69.4,100.6 70,100.4 70.5,99.9C71,99.4 71.2,98.7 71.2,98.1L71.2,89.9L74.9,89.9L74.9,103.6L71.4,103.6L71.4,102.4L71.3,102.4C70.9,102.9 70.3,103.3 69.7,103.6C67.4,104.9 64.4,104 63.1,101.7C62.6,100.8 62.4,99.8 62.5,98.9Z" style="fill-rule:nonzero;"/>
                <path id="Path_18" d="M80,89.9L83.7,89.9L83.7,91.2L83.8,91.2C84.3,90.7 84.9,90.3 85.6,89.9C86.3,89.6 87,89.5 87.8,89.5C88.7,89.5 89.5,89.7 90.3,90.1C91.1,90.6 91.8,91.2 92.2,92C92.7,93 93,94.1 92.9,95.2L92.9,103.5L89.2,103.5L89.2,95.7C89.2,94.9 89,94.2 88.5,93.6C88,93 87.3,92.8 86.6,92.8C85.8,92.8 85.1,93 84.5,93.6C84,94.2 83.7,94.9 83.7,95.7L83.7,103.5L80,103.5L80,89.9Z" style="fill-rule:nonzero;"/>
                <path id="Path_19" d="M96.6,96.7C96.6,95.4 96.9,94.1 97.4,93C97.9,91.9 98.7,91 99.6,90.4C100.6,89.8 101.7,89.5 102.9,89.5C104.2,89.4 105.5,89.9 106.5,90.7L106.6,90.7L106.6,84.7L110.3,84.7L110.3,103.6L106.9,103.6L106.9,102.4L106.8,102.4C105.8,103.5 104.3,104 102.8,104C101.7,104 100.5,103.7 99.6,103.1C98.6,102.5 97.9,101.6 97.4,100.6C96.9,99.3 96.6,98 96.6,96.7ZM106.6,97.6L106.6,95.8C106.6,95.3 106.5,94.8 106.2,94.4C105.9,93.9 105.5,93.6 105,93.3C104.5,93 103.9,92.9 103.4,92.9C102.5,92.9 101.7,93.3 101.1,93.9C100,95.6 100,97.8 101.1,99.5C101.6,100.2 102.5,100.6 103.3,100.6C104.2,100.6 105,100.3 105.6,99.7C106.3,99.2 106.6,98.4 106.6,97.6Z" style="fill-rule:nonzero;"/>
                <path id="Path_20" d="M115.3,99.9C115.2,98.8 115.7,97.7 116.6,96.9C117.9,96 119.4,95.5 121,95.3C121.8,95.2 122.5,95 123.2,94.7C123.5,94.5 123.8,94.2 123.8,93.8C123.8,93.4 123.6,93 123.2,92.8C122.7,92.5 122.2,92.4 121.6,92.4C120.9,92.4 120.2,92.6 119.7,93.1C119.2,93.6 118.8,94.2 118.7,94.9L115.3,94.1C115.5,93.2 115.9,92.3 116.5,91.6C117.1,90.9 117.9,90.3 118.8,89.9C119.7,89.5 120.8,89.3 121.8,89.3C123.3,89.2 124.9,89.7 126,90.8C127.1,91.8 127.6,93.3 127.6,94.7L127.6,103.4L124.3,103.4L124.3,102L124.2,102C123.8,102.6 123.2,103.1 122.5,103.4C121.7,103.7 120.9,103.9 120.1,103.9C119.3,103.9 118.4,103.7 117.7,103.4C117,103.1 116.4,102.6 116,102C115.5,101.3 115.3,100.6 115.3,99.9ZM123.9,98.5L123.9,96.9L123.8,96.9C123.6,97.2 123.3,97.4 123,97.5C122.4,97.7 121.9,97.9 121.3,98C120.6,98.1 119.9,98.3 119.3,98.7C119,98.9 118.7,99.3 118.8,99.7C118.8,100.1 119,100.4 119.3,100.6C119.7,100.8 120.2,100.9 120.7,100.9C121.2,100.9 121.8,100.8 122.3,100.6C122.8,100.4 123.2,100.1 123.5,99.7C123.7,99.3 123.9,98.9 123.9,98.5Z" style="fill-rule:nonzero;"/>
                <path id="Path_21" d="M139.9,93.1L139.9,98.7C139.9,99.1 140,99.4 140.2,99.7C140.5,99.9 140.9,100 141.3,100L144.4,100L144.4,103.6L140.9,103.6C139.6,103.7 138.4,103.3 137.4,102.5C136.5,101.7 136.1,100.6 136.2,99.4L136.2,93.1L132.8,93.1L132.8,89.8L136.2,89.8L136.2,86.3L139.9,86.3L139.9,89.8L145.3,89.8L145.3,93.1L139.9,93.1Z" style="fill-rule:nonzero;"/>
                <path id="Path_22" d="M163.3,100.2L163.3,103.6L149.8,103.6L149.8,100.2L154.7,100.2L154.7,93.3L150.1,93.3L150.1,89.9L158.4,89.9L158.4,100.2L163.3,100.2ZM154.7,84.1L158.5,84.1L158.5,87.7L154.7,87.7L154.7,84.1Z" style="fill-rule:nonzero;"/>
                <path id="Path_23" d="M167.2,96.7C167.2,95.4 167.5,94.1 168.1,92.9C168.7,91.8 169.5,90.9 170.6,90.3C172.9,89.1 175.6,89.1 177.9,90.3C178.9,90.9 179.8,91.8 180.4,92.9C181.6,95.3 181.6,98.1 180.4,100.4C179.8,101.5 179,102.4 177.9,103C175.6,104.2 172.9,104.2 170.6,103C169.6,102.4 168.7,101.5 168.1,100.4C167.5,99.3 167.2,98 167.2,96.7ZM177.5,96.7C177.6,95.7 177.3,94.7 176.6,93.9C176,93.2 175.1,92.8 174.2,92.9C173.3,92.9 172.4,93.2 171.8,93.9C171.2,94.7 170.9,95.7 170.9,96.7C170.8,97.7 171.1,98.7 171.8,99.5C173.1,100.8 175.2,100.9 176.6,99.6L176.7,99.5C177.2,98.7 177.5,97.7 177.5,96.7Z" style="fill-rule:nonzero;"/>
                <path id="Path_24" d="M185.4,89.9L189.1,89.9L189.1,91.2L189.2,91.2C189.7,90.7 190.3,90.3 191,89.9C191.7,89.6 192.4,89.5 193.2,89.5C194.1,89.5 194.9,89.7 195.7,90.1C196.5,90.6 197.2,91.2 197.6,92C198.1,93 198.4,94.1 198.3,95.2L198.3,103.5L194.6,103.5L194.6,95.7C194.6,94.9 194.4,94.2 193.9,93.6C193.4,93 192.7,92.8 192,92.8C191.2,92.8 190.5,93 189.9,93.6C189.4,94.2 189.1,94.9 189.1,95.7L189.1,103.5L185.4,103.5L185.4,89.9Z" style="fill-rule:nonzero;"/>
            </g>
        </g>
    </g>
</svg>
