<?xml version="1.0" encoding="UTF-8" standalone="no"?>
<!DOCTYPE svg PUBLIC "-//W3C//DTD SVG 1.1//EN" "http://www.w3.org/Graphics/SVG/1.1/DTD/svg11.dtd">
<svg width="413" height="66" viewBox="0 0 413 66" version="1.1" xmlns="http://www.w3.org/2000/svg" xmlns:xlink="http://www.w3.org/1999/xlink" xml:space="preserve" xmlns:serif="http://www.serif.com/" style="fill-rule:evenodd;clip-rule:evenodd;stroke-linejoin:round;stroke-miterlimit:2;">
    <g transform="matrix(1,0,0,1,-93.7,-169.5)">
        <path d="M151.6,234.6L151.6,217.7L133.4,217.7C128.5,217.7 123.9,220.3 121.3,224.6L115.4,234.6L151.6,234.6ZM93.7,169.5L93.7,186.4L141.6,186.4L151.6,169.5L93.7,169.5ZM117.3,196.3L93.8,234.6L113.9,234.6L142.1,188.8L131,188.8C125.3,188.8 120.1,191.7 117.3,196.3ZM192.7,219.7C182.9,219.7 175.7,212.5 175.7,202.7C175.7,193.1 183,185.7 192.8,185.7C202.6,185.7 209.9,193.1 209.9,202.7C209.9,212.3 202.5,219.7 192.7,219.7ZM192.8,213.7C199,213.7 203.5,209 203.5,202.7C203.5,196.4 199.1,191.7 192.8,191.7C186.5,191.7 182.1,196.5 182.1,202.7C182.1,209 186.5,213.7 192.8,213.7ZM216.4,229.8L216.4,194.5L222.3,194.5L222.3,197.6L222.6,197.6C223.2,196.6 225.5,193.9 229.9,193.9C236.7,193.9 241.4,199 241.4,206.7C241.4,214.4 236.8,219.7 230.1,219.7C225.8,219.7 223.5,217.3 222.7,215.9L222.4,215.9L222.4,229.8L216.4,229.8ZM228.9,214.1C232.8,214.1 235.4,211.1 235.4,206.7C235.4,202.2 232.8,199.3 228.8,199.3C224.8,199.3 222.3,202.5 222.3,206.7C222.3,211.3 225.1,214.1 228.9,214.1ZM258.7,219.7C251.5,219.7 246.4,214.3 246.4,206.9C246.4,199.1 251.5,193.9 258.7,193.9C266.5,193.9 270.8,199.7 270.8,206.7L270.8,208.6L252.3,208.6C252.5,212.3 255,214.9 258.9,214.9C261.9,214.9 264.1,213.5 265,211.5L270.6,211.5C269.4,216.4 265,219.7 258.7,219.7ZM252.4,204.2L265.1,204.2C264.8,200.9 262.3,198.7 258.8,198.7C255.4,198.7 252.8,201.1 252.4,204.2ZM277.3,219L277.3,194.4L283,194.4L283,197.4L283.3,197.4C284.3,195.6 286.7,193.8 290.2,193.8C295.7,193.8 299,197.7 299,202.9L299,219L293,219L293,204.5C293,201.5 291.1,199.5 288.3,199.5C285.4,199.5 283.3,201.8 283.3,204.9L283.3,219L277.3,219ZM305,219L305,213.4L321.9,191.9L321.9,191.6L305.6,191.6L305.6,186.2L329.5,186.2L329.5,191.7L312.6,213.2L312.6,213.6L329.6,213.6L329.6,219L305,219ZM346,219.7C338.8,219.7 333.7,214.3 333.7,206.9C333.7,199.1 338.8,193.9 346,193.9C353.8,193.9 358.1,199.7 358.1,206.7L358.1,208.6L339.6,208.6C339.8,212.3 342.3,214.9 346.2,214.9C349.2,214.9 351.4,213.5 352.3,211.5L357.9,211.5C356.6,216.4 352.3,219.7 346,219.7ZM339.6,204.2L352.3,204.2C352,200.9 349.5,198.7 346,198.7C342.6,198.7 340,201.1 339.6,204.2ZM364.5,229.8L364.5,194.5L370.4,194.5L370.4,197.6L370.7,197.6C371.3,196.6 373.6,193.9 378,193.9C384.8,193.9 389.5,199 389.5,206.7C389.5,214.4 384.9,219.7 378.2,219.7C373.9,219.7 371.6,217.3 370.8,215.9L370.5,215.9L370.5,229.8L364.5,229.8ZM376.9,214.1C380.8,214.1 383.4,211.1 383.4,206.7C383.4,202.2 380.8,199.3 376.8,199.3C372.8,199.3 370.3,202.5 370.3,206.7C370.4,211.3 373.2,214.1 376.9,214.1ZM396.1,229.8L396.1,194.5L402,194.5L402,197.6L402.3,197.6C402.9,196.6 405.2,193.9 409.6,193.9C416.4,193.9 421.1,199 421.1,206.7C421.1,214.4 416.5,219.7 409.8,219.7C405.5,219.7 403.2,217.3 402.4,215.9L402.1,215.9L402.1,229.8L396.1,229.8ZM408.5,214.1C412.4,214.1 415,211.1 415,206.7C415,202.2 412.4,199.3 408.4,199.3C404.4,199.3 401.9,202.5 401.9,206.7C402,211.3 404.7,214.1 408.5,214.1ZM438.4,219.7C431.2,219.7 426.1,214.3 426.1,206.9C426.1,199.1 431.2,193.9 438.4,193.9C446.2,193.9 450.5,199.7 450.5,206.7L450.5,208.6L432,208.6C432.2,212.3 434.7,214.9 438.6,214.9C441.6,214.9 443.8,213.5 444.7,211.5L450.3,211.5C449,216.4 444.7,219.7 438.4,219.7ZM432,204.2L444.7,204.2C444.4,200.9 441.9,198.7 438.4,198.7C435,198.7 432.4,201.1 432,204.2ZM462.9,219C458.6,219 456.2,216.4 456.2,212.1L456.2,184L462.2,184L462.2,211.6C462.2,213 462.9,213.8 464.1,213.8L465.1,213.8L465.1,219.1L462.9,219.1L462.9,219ZM473.9,191.2C471.7,191.2 470.2,189.8 470.2,187.6C470.2,185.5 471.7,184.1 473.9,184.1C476.1,184.1 477.6,185.5 477.6,187.6C477.7,189.8 476.1,191.2 473.9,191.2ZM470.9,219L470.9,194.4L476.9,194.4L476.9,219L470.9,219ZM484.3,219L484.3,194.4L490,194.4L490,197.4L490.3,197.4C491.3,195.6 493.7,193.8 497.2,193.8C502.7,193.8 506,197.7 506,202.9L506,219L500,219L500,204.5C500,201.5 498.1,199.5 495.3,199.5C492.4,199.5 490.3,201.8 490.3,204.9L490.3,219L484.3,219Z" style="fill:#000;fill-rule:nonzero;"/>
    </g>
</svg>
