<svg xmlns="http://www.w3.org/2000/svg" width="186" height="24" fill="none" viewBox="0 0 186 24">
  <path fill="#000"
    d="m4.806 7.1.028 7.575 6.664 3.696 6.47-3.694-.055-7.428-2.46 1.319v4.697L11.5 15.456 7.54 13.26V8.487c4.22-2.34 7.113-4.136 11.333-6.476L16.358.554 4.778 7.048l.028.052Z" />
  <path fill="#000" fill-rule="evenodd"
    d="m3.17 5.59 4.182-2.524L5.928.934.524 4.196l-.05 6.406.05 6.406 5.414 3.268 5.54 3.224 5.54-3.224 5.414-3.268.05-6.406-.05-6.406-4.456-2.716-1.803 1.95 3.614 2.16.01 5.012-.01 5.012-4.174 2.52-4.135 2.405-4.135-2.406-4.174-2.52-.01-5.01.01-5.012Z"
    clip-rule="evenodd" />
  <path fill="#000" fill-rule="evenodd"
    d="M17.93 14.675v-7.6l-2.915-1.698-2.697 1.43c.925.536 1.892 1.09 2.941 1.68v4.773l-3.906 2.196-3.898-2.191V8.568l-2.67-1.507v7.616l6.57 3.694 6.574-3.696ZM7.95 4.257l2.612-1.474L6.643.5 4.08 2.038c1.406.79 2.662 1.515 3.87 2.22Z"
    clip-rule="evenodd" />
  <g fill="#000" clip-path="url(#a)">
    <path
      d="M184.521 10.671v2.268h-6.504v3.275h7.901v2.427h-10.672V4.901h10.672v2.427h-7.901v3.343h6.504ZM171.713 18.642h-10.1V4.9h2.771v11.313h7.329v2.428ZM157.453 14.633c0 2.588-1.992 4.008-5.221 4.008h-6.779V4.9h6.596c3.252 0 4.992 1.374 4.992 3.733 0 1.26-.641 2.267-1.74 2.748v.298c1.328.435 2.152 1.534 2.152 2.954Zm-5.175-1.924h-4.054v3.504h4.099c1.306 0 2.176-.733 2.176-1.763 0-1.008-.893-1.74-2.221-1.74ZM154.11 9c0-1.053-.733-1.672-2.107-1.672h-3.779v3.344h3.756c1.374 0 2.13-.71 2.13-1.672ZM127.811 18.641l7.053-13.74h.481l7.076 13.74h-3.137l-.893-1.878h-6.573l-.87 1.878h-3.137Zm9.458-4.237-2.084-4.488h-.184l-2.084 4.488-.16.298h4.672l-.16-.298ZM119.279 12.94v-2.268h6.871v1.351c0 4.077-2.245 6.917-6.527 6.917-4.512 0-7.26-3.207-7.26-7.168 0-3.962 2.771-7.168 7.306-7.168 3.595 0 5.13 1.74 5.13 1.74l-1.626 2.107s-1.374-1.19-3.55-1.19c-2.611 0-4.397 1.9-4.397 4.51 0 2.611 1.763 4.535 4.374 4.535 2.221 0 3.55-1.397 3.618-3.183v-.183h-3.939ZM102.426 12.94v-2.268h6.87v1.351c0 4.076-2.244 6.916-6.527 6.916-4.511 0-7.26-3.206-7.26-7.168s2.772-7.168 7.306-7.168c3.596 0 5.13 1.74 5.13 1.74l-1.626 2.107s-1.374-1.19-3.55-1.19c-2.61 0-4.397 1.9-4.397 4.511 0 2.61 1.764 4.534 4.375 4.534 2.221 0 3.549-1.396 3.618-3.183v-.183h-3.939ZM85.547 18.939c-3.801 0-6.16-2.61-6.16-6.16V4.9h2.77v7.878c0 1.901 1.123 3.504 3.39 3.504 2.29 0 3.344-1.58 3.344-3.504V4.9h2.77v7.878c0 3.55-2.267 6.16-6.114 6.16ZM63.365 18.64V4.9h6.206c3.481 0 5.634 1.717 5.634 4.718 0 2.038-1.007 3.435-2.588 4.19v.207l3.275 4.35v.276h-3.137l-3.046-4.191h-3.573v4.19h-2.77Zm8.977-8.908c0-1.58-1.076-2.405-2.862-2.405h-3.344v4.787h3.413c1.74 0 2.793-.779 2.793-2.382ZM58.434 4.923V18.64h-.664l-9.206-8.382v8.382h-2.771V4.9h.687l9.206 8.198V4.923h2.748ZM34.955 18.938c-3.801 0-6.16-2.61-6.16-6.16V4.9h2.771v7.878c0 1.9 1.122 3.504 3.39 3.504 2.29 0 3.343-1.58 3.343-3.504V4.9h2.77v7.878c0 3.55-2.266 6.16-6.114 6.16Z" />
  </g>
  <defs>
    <clipPath id="a">
      <path fill="#fff" d="M28.75 4.58h157.178v14.84H28.75z" />
    </clipPath>
  </defs>
</svg>

