<svg width="900" height="750" viewBox="0 0 900 750" fill="none" xmlns="http://www.w3.org/2000/svg">
  <!-- Main container -->
  <rect x="30" y="30" width="840" height="690" stroke="#9C9C9C" fill="white"/>

  <!-- Top level label: Interoperable Name -->
  <text x="450" y="65" font-family="monospace" font-size="18" fill="#666" text-anchor="middle" font-weight="500">Interoperable Name</text>

  <!-- Top: alice.eth @ base -->
  <rect x="307" y="90" width="286" height="50" rx="4" stroke="#B9B9B9" fill="white"/>
  <text x="450" y="120" font-family="monospace" font-size="20" fill="#28253D" text-anchor="middle">alice.eth @ base</text>

  <!-- Split arrows -->
  <!-- Left arrow for alice.eth -->
  <path d="M350 140 L250 180" stroke="#A1A1A1" stroke-width="2" marker-end="url(#arrowhead)"/>
  <!-- Right arrow for base -->
  <path d="M550 140 L650 180" stroke="#A1A1A1" stroke-width="2" marker-end="url(#arrowhead)"/>

  <!-- ENS annotation (left) -->
  <text x="260" y="155" font-family="monospace" font-size="16" fill="#666" text-anchor="middle">ENS</text>

  <!-- Chain Registry annotation (right) -->
  <text x="690" y="155" font-family="monospace" font-size="16" fill="#666" text-anchor="middle">Chain Registry</text>

  <!-- Left box: 0xcd2e...1c75 -->
  <rect x="120" y="190" width="260" height="50" rx="4" stroke="#B9B9B9" fill="white"/>
  <text x="250" y="220" font-family="monospace" font-size="20" fill="#28253D" text-anchor="middle">0xcd2e...1c75</text>

  <!-- Right box: eip155:8453 -->
  <rect x="520" y="190" width="260" height="50" rx="4" stroke="#B9B9B9" fill="white"/>
  <text x="650" y="220" font-family="monospace" font-size="20" fill="#28253D" text-anchor="middle">eip155:8453</text>

  <!-- Merge arrows -->
  <!-- Left merge arrow -->
  <path d="M250 240 L350 280" stroke="#A1A1A1" stroke-width="2" marker-end="url(#arrowhead)"/>
  <!-- Right merge arrow -->
  <path d="M650 240 L550 280" stroke="#A1A1A1" stroke-width="2" marker-end="url(#arrowhead)"/>

  <!-- Combined box: 0xcd2e...1c75 @ eip155:8453 -->
  <rect x="227" y="290" width="446" height="50" rx="4" stroke="#B9B9B9" fill="white"/>
  <text x="450" y="320" font-family="monospace" font-size="20" fill="#28253D" text-anchor="middle">0xcd2e...1c75 @ eip155:8453</text>

  <!-- Arrow down -->
  <path d="M450 340 L450 390" stroke="#A1A1A1" stroke-width="2" marker-end="url(#arrowhead)"/>

  <!-- Serialize label -->
  <rect x="320" y="355" width="260" height="40" rx="4" stroke="#B9B9B9" fill="white"/>
  <text x="450" y="380" font-family="monospace" font-size="18" fill="#28253D" text-anchor="middle">Serialize via CAIP-350</text>

  <!-- Binary format -->
  <rect x="145" y="390" width="610" height="70" rx="4" stroke="#B9B9B9" fill="white"/>
  <text x="450" y="420" font-family="monospace" font-size="18" fill="#28253D" text-anchor="middle">0x0001  0000  02  2105  14  cd2e...1c75</text>
  <text x="450" y="445" font-family="monospace" font-size="15" fill="#999" text-anchor="middle">Ver | ChainType | RefLen | Ref | AddrLen | Addr</text>

  <!-- Interoperable Address label -->
  <text x="450" y="478" font-family="monospace" font-size="15" fill="#999" text-anchor="middle">Interoperable Address</text>

  <!-- Arrow down -->
  <path d="M450 480 L450 530" stroke="#A1A1A1" stroke-width="2" marker-end="url(#arrowhead)"/>

  <!-- Checksum step -->
  <rect x="250" y="530" width="400" height="50" rx="4" stroke="#B9B9B9" fill="white"/>
  <text x="450" y="560" font-family="monospace" font-size="18" fill="#28253D" text-anchor="middle">Checksum: keccak256[0:4]</text>

  <!-- Arrow down -->
  <path d="M450 580 L450 620" stroke="#A1A1A1" stroke-width="2" marker-end="url(#arrowhead)"/>

  <!-- Bottom: alice.eth @ base # 8FC41F97 -->
  <rect x="227" y="620" width="446" height="50" rx="4" stroke="#B9B9B9" fill="white"/>
  <text x="450" y="650" font-family="monospace" font-size="20" fill="#28253D" text-anchor="middle">alice.eth @ base # 8FC41F97</text>

  <!-- Arrow marker definition -->
  <defs>
    <marker id="arrowhead" markerWidth="10" markerHeight="10" refX="9" refY="3" orient="auto">
      <polygon points="0 0, 10 3, 0 6" fill="#A1A1A1"/>
    </marker>
  </defs>
</svg>
